<svg width="81" height="80" viewBox="0 0 81 80" fill="none" xmlns="http://www.w3.org/2000/svg">
<circle cx="40.75" cy="40" r="40" fill="#4F5A97"/>
<path d="M40.7503 19.1667C36.6299 19.1667 32.602 20.3886 29.176 22.6778C25.7499 24.967 23.0797 28.2207 21.5028 32.0275C19.926 35.8343 19.5134 40.0232 20.3173 44.0645C21.1212 48.1057 23.1053 51.8179 26.0189 54.7315C28.9325 57.6451 32.6447 59.6292 36.686 60.4331C40.7272 61.237 44.9161 60.8244 48.7229 59.2476C52.5297 57.6707 55.7834 55.0005 58.0726 51.5745C60.3618 48.1484 61.5837 44.1205 61.5837 40.0001C61.5837 37.2642 61.0448 34.5551 59.9978 32.0275C58.9509 29.4999 57.4163 27.2032 55.4817 25.2687C53.5472 23.3341 51.2505 21.7996 48.7229 20.7526C46.1953 19.7056 43.4862 19.1667 40.7503 19.1667ZM40.7503 56.6667C37.454 56.6667 34.2317 55.6893 31.4908 53.8579C28.75 52.0265 26.6138 49.4236 25.3523 46.3781C24.0909 43.3327 23.7608 39.9816 24.4039 36.7486C25.047 33.5156 26.6343 30.5458 28.9652 28.215C31.2961 25.8841 34.2658 24.2967 37.4988 23.6537C40.7318 23.0106 44.083 23.3406 47.1284 24.6021C50.1738 25.8635 52.7768 27.9998 54.6082 30.7406C56.4395 33.4814 57.417 36.7037 57.417 40.0001C57.417 44.4204 55.6611 48.6596 52.5355 51.7852C49.4098 54.9108 45.1706 56.6667 40.7503 56.6667Z" fill="white"/>
<path d="M48.4175 32.3334C48.1323 32.0261 47.761 31.812 47.3521 31.719C46.9433 31.6261 46.5159 31.6587 46.1259 31.8126L37.355 35.3543C37.0972 35.459 36.8629 35.6144 36.6661 35.8112C36.4693 36.008 36.314 36.2423 36.2092 36.5001L32.5634 45.3751C32.434 45.7242 32.4006 46.1016 32.4665 46.4679C32.5325 46.8343 32.6954 47.1764 32.9384 47.4584H33.0425C33.2104 47.6987 33.427 47.9007 33.6783 48.0515C33.9296 48.2023 34.2099 48.2984 34.5009 48.3334C34.7717 48.3368 35.0406 48.2872 35.2925 48.1876L44.0634 44.6459C44.3212 44.5412 44.5554 44.3858 44.7522 44.189C44.949 43.9922 45.1044 43.758 45.2092 43.5001L48.855 34.6251C49.0191 34.2431 49.0651 33.8207 48.9872 33.4123C48.9092 33.0039 48.7108 32.6282 48.4175 32.3334ZM38.2509 42.5209L39.73 38.8959L43.2509 37.4793L41.7717 41.1043L38.2509 42.5209Z" fill="white"/>
</svg>
