<svg width="81" height="80" viewBox="0 0 81 80" fill="none" xmlns="http://www.w3.org/2000/svg">
<circle cx="40.75" cy="40" r="40" fill="#3E7457"/>
<path d="M46.9993 48.3333H34.4993C33.9468 48.3333 33.4169 48.5527 33.0262 48.9434C32.6355 49.3341 32.416 49.864 32.416 50.4166C32.416 50.9691 32.6355 51.499 33.0262 51.8897C33.4169 52.2804 33.9468 52.4999 34.4993 52.4999H46.9993C47.5519 52.4999 48.0818 52.2804 48.4725 51.8897C48.8632 51.499 49.0827 50.9691 49.0827 50.4166C49.0827 49.864 48.8632 49.3341 48.4725 48.9434C48.0818 48.5527 47.5519 48.3333 46.9993 48.3333Z" fill="white"/>
<path d="M34.4993 44.1667H40.7493C41.3019 44.1667 41.8318 43.9472 42.2225 43.5565C42.6132 43.1658 42.8327 42.6359 42.8327 42.0833C42.8327 41.5308 42.6132 41.0009 42.2225 40.6102C41.8318 40.2195 41.3019 40 40.7493 40H34.4993C33.9468 40 33.4169 40.2195 33.0262 40.6102C32.6355 41.0009 32.416 41.5308 32.416 42.0833C32.416 42.6359 32.6355 43.1658 33.0262 43.5565C33.4169 43.9472 33.9468 44.1667 34.4993 44.1667Z" fill="white"/>
<path d="M56.8747 32.3541L45.5413 19.8541C45.3466 19.6383 45.1088 19.4657 44.8433 19.3473C44.5777 19.2288 44.2904 19.1673 43.9997 19.1666H29.4163C28.7242 19.1584 28.0371 19.2866 27.3945 19.5438C26.7518 19.8011 26.1661 20.1825 25.6709 20.6661C25.1756 21.1498 24.7805 21.7262 24.508 22.3626C24.2356 22.999 24.0912 23.6828 24.083 24.375V55.625C24.0912 56.3171 24.2356 57.0009 24.508 57.6373C24.7805 58.2737 25.1756 58.8502 25.6709 59.3338C26.1661 59.8174 26.7518 60.1988 27.3945 60.4561C28.0371 60.7134 28.7242 60.8415 29.4163 60.8333H52.083C52.7752 60.8415 53.4622 60.7134 54.1049 60.4561C54.7475 60.1988 55.3332 59.8174 55.8285 59.3338C56.3237 58.8502 56.7189 58.2737 56.9913 57.6373C57.2638 57.0009 57.4082 56.3171 57.4163 55.625V33.75C57.415 33.2336 57.222 32.7362 56.8747 32.3541ZM44.9163 25.4166L50.6247 31.6666H46.458C46.2398 31.6535 46.0265 31.597 45.8304 31.5004C45.6343 31.4039 45.4594 31.2693 45.3159 31.1045C45.1724 30.9396 45.0631 30.7478 44.9945 30.5403C44.9259 30.3328 44.8993 30.1137 44.9163 29.8958V25.4166ZM52.083 56.6666H29.4163C29.2713 56.6751 29.126 56.6548 28.9888 56.607C28.8516 56.5592 28.7252 56.4847 28.6168 56.388C28.5084 56.2912 28.4202 56.174 28.3572 56.043C28.2942 55.9121 28.2577 55.77 28.2497 55.625V24.375C28.2577 24.2299 28.2942 24.0878 28.3572 23.9569C28.4202 23.8259 28.5084 23.7087 28.6168 23.612C28.7252 23.5152 28.8516 23.4408 28.9888 23.3929C29.126 23.3451 29.2713 23.3249 29.4163 23.3333H40.7497V29.8958C40.716 31.4304 41.2908 32.9161 42.3486 34.0284C43.4063 35.1408 44.8611 35.7896 46.3955 35.8333H53.2497V55.625C53.2417 55.77 53.2052 55.9121 53.1422 56.043C53.0792 56.174 52.991 56.2912 52.8826 56.388C52.7742 56.4847 52.6478 56.5592 52.5106 56.607C52.3734 56.6548 52.2281 56.6751 52.083 56.6666Z" fill="white"/>
</svg>
