<svg width="24" height="24" viewBox="0 0 24 24" fill="none" xmlns="http://www.w3.org/2000/svg">
<g id="icon / message">
<g id="&#240;&#159;&#166;&#134; icon &#34;message circle outline&#34;">
<g id="Group">
<path id="Vector" d="M12.001 13C12.5533 13 13.001 12.5523 13.001 12C13.001 11.4477 12.5533 11 12.001 11C11.4487 11 11.001 11.4477 11.001 12C11.001 12.5523 11.4487 13 12.001 13Z" fill="#1F1F1F"/>
<path id="Vector_2" d="M16.001 13C16.5533 13 17.001 12.5523 17.001 12C17.001 11.4477 16.5533 11 16.001 11C15.4487 11 15.001 11.4477 15.001 12C15.001 12.5523 15.4487 13 16.001 13Z" fill="#1F1F1F"/>
<path id="Vector_3" d="M8.00098 13C8.55326 13 9.00098 12.5523 9.00098 12C9.00098 11.4477 8.55326 11 8.00098 11C7.44869 11 7.00098 11.4477 7.00098 12C7.00098 12.5523 7.44869 13 8.00098 13Z" fill="#1F1F1F"/>
<path id="Vector_4" d="M19.0706 4.93002C17.4298 3.27852 15.2642 2.25124 12.9472 2.02526C10.6302 1.79929 8.30695 2.3888 6.37799 3.69215C4.44903 4.99551 3.03524 6.93103 2.38037 9.16503C1.7255 11.399 1.87058 13.7915 2.79061 15.93C2.8865 16.1288 2.91796 16.3525 2.88061 16.57L2.00061 20.8C1.9667 20.9622 1.97363 21.1303 2.02075 21.2891C2.06788 21.4479 2.15374 21.5926 2.27061 21.71C2.36641 21.8051 2.48048 21.8799 2.60594 21.9297C2.7314 21.9795 2.86565 22.0035 3.00061 22H3.20061L7.48061 21.14C7.69814 21.1139 7.91873 21.1449 8.12061 21.23C10.2591 22.15 12.6516 22.2951 14.8856 21.6403C17.1196 20.9854 19.0551 19.5716 20.3585 17.6426C21.6618 15.7137 22.2513 13.3904 22.0254 11.0734C21.7994 8.75638 20.7721 6.59081 19.1206 4.95002L19.0706 4.93002ZM19.9006 13.29C19.7051 14.484 19.2413 15.6181 18.5442 16.6069C17.847 17.5958 16.9347 18.4136 15.8758 18.9989C14.8169 19.5842 13.639 19.9216 12.4308 19.9859C11.2227 20.0502 10.0156 19.8396 8.90061 19.37C8.50515 19.2018 8.08034 19.1135 7.65061 19.11C7.46289 19.1113 7.27559 19.1281 7.09061 19.16L4.27061 19.73L4.84061 16.91C4.95413 16.2993 4.88095 15.6685 4.63061 15.1C4.161 13.985 3.95041 12.778 4.0147 11.5698C4.07898 10.3616 4.41647 9.18377 5.00175 8.12487C5.58703 7.06598 6.40486 6.15362 7.3937 5.45647C8.38254 4.75932 9.51662 4.29554 10.7106 4.10002C11.9639 3.89434 13.2481 3.99 14.4571 4.37908C15.6661 4.76817 16.765 5.43951 17.6631 6.33756C18.5611 7.23561 19.2325 8.33457 19.6215 9.54354C20.0106 10.7525 20.1063 12.0367 19.9006 13.29Z" fill="#1F1F1F"/>
</g>
</g>
</g>
</svg>
