<svg width="81" height="80" viewBox="0 0 81 80" fill="none" xmlns="http://www.w3.org/2000/svg">
<circle cx="40.75" cy="40" r="40" fill="#AD5D4E"/>
<path d="M56.7139 25.777C54.6251 23.7029 52.143 22.0669 49.4134 20.965C46.6837 19.8632 43.7615 19.3176 40.8181 19.3604C35.2928 19.3466 29.9882 21.5282 26.0715 25.4255C22.1547 29.3227 19.9465 34.6163 19.9327 40.1416C19.9189 45.667 22.1006 50.9715 25.9978 54.8883C29.895 58.805 35.1886 61.0132 40.7139 61.027C41.9045 61.0473 43.0682 60.6716 44.0222 59.9589C44.9762 59.2463 45.6665 58.237 45.9848 57.0895C46.1877 56.2609 46.1856 55.3953 45.9787 54.5676C45.7717 53.74 45.3662 52.9752 44.7973 52.3395C44.6657 52.1898 44.5799 52.0055 44.5499 51.8084C44.52 51.6114 44.5472 51.4099 44.6284 51.2278C44.7095 51.0458 44.8412 50.8909 45.0078 50.7814C45.1743 50.672 45.3688 50.6126 45.5681 50.6104H49.0056C52.2409 50.6255 55.3622 49.4161 57.7426 47.225C60.1231 45.0339 61.5865 42.0233 61.8389 38.7979C61.9164 36.3929 61.5018 33.9974 60.6206 31.7584C59.7393 29.5194 58.4099 27.484 56.7139 25.777ZM49.0889 46.4437H45.6514C44.6475 46.438 43.6636 46.7237 42.8188 47.2662C41.9741 47.8087 41.305 48.5847 40.8925 49.5C40.4801 50.4153 40.3421 51.4306 40.4953 52.4227C40.6485 53.4149 41.0863 54.3413 41.7556 55.0895C41.8859 55.221 41.978 55.3855 42.0221 55.5653C42.0661 55.7451 42.0604 55.9335 42.0056 56.1104C41.9014 56.5479 41.4223 56.8187 40.7764 56.8604C38.4104 56.83 36.078 56.2963 33.9343 55.2946C31.7906 54.2928 29.8848 52.8462 28.3436 51.0507C26.8024 49.2553 25.6612 47.1523 24.9958 44.8816C24.3305 42.6108 24.1563 40.2245 24.4848 37.8812C25.0789 33.9436 27.0463 30.3429 30.0392 27.7161C33.0321 25.0892 36.8575 23.6054 40.8389 23.527H41.0056C43.3615 23.4962 45.6998 23.9375 47.8824 24.8248C50.0651 25.7122 52.0479 27.0277 53.7139 28.6937C55.0139 29.9945 56.0354 31.5465 56.7159 33.255C57.3965 34.9636 57.7219 36.7928 57.6723 38.6312C57.4566 40.7626 56.4609 42.7391 54.8766 44.1811C53.2924 45.6231 51.2312 46.4289 49.0889 46.4437Z" fill="white"/>
<path d="M41.0059 31.8604C42.7317 31.8604 44.1309 30.4612 44.1309 28.7354C44.1309 27.0095 42.7317 25.6104 41.0059 25.6104C39.28 25.6104 37.8809 27.0095 37.8809 28.7354C37.8809 30.4612 39.28 31.8604 41.0059 31.8604Z" fill="white"/>
<path d="M47.7767 30.1937C47.2416 30.5028 46.8102 30.9636 46.537 31.5178C46.2637 32.072 46.1609 32.6948 46.2416 33.3074C46.3222 33.9201 46.5826 34.495 46.99 34.9597C47.3973 35.4243 47.9333 35.7578 48.5301 35.9179C49.1269 36.078 49.7578 36.0576 50.343 35.8593C50.9282 35.6609 51.4415 35.2935 51.8179 34.8035C52.1944 34.3135 52.4171 33.7229 52.458 33.1063C52.4989 32.4898 52.356 31.8749 52.0475 31.3395C51.8425 30.9837 51.5694 30.6718 51.2437 30.4216C50.9181 30.1714 50.5463 29.9878 50.1496 29.8814C49.753 29.775 49.3392 29.7478 48.9321 29.8014C48.5249 29.855 48.1323 29.9883 47.7767 30.1937Z" fill="white"/>
<path d="M34.2349 30.1937C33.6995 29.8852 33.0847 29.7423 32.4681 29.7832C31.8516 29.8241 31.2609 30.0468 30.7709 30.4233C30.2809 30.7997 29.9135 31.313 29.7152 31.8982C29.5168 32.4834 29.4964 33.1143 29.6565 33.7111C29.8167 34.308 30.1501 34.8439 30.6148 35.2512C31.0794 35.6586 31.6544 35.919 32.267 35.9996C32.8797 36.0803 33.5025 35.9775 34.0567 35.7042C34.6109 35.431 35.0717 34.9996 35.3808 34.4645C35.5862 34.1089 35.7195 33.7163 35.7731 33.3091C35.8267 32.902 35.7995 32.4882 35.6931 32.0916C35.5866 31.6949 35.4031 31.3232 35.1529 30.9975C34.9027 30.6718 34.5908 30.3987 34.2349 30.1937Z" fill="white"/>
<path d="M28.8392 38.652C28.3266 38.9981 27.9282 39.4885 27.6946 40.0611C27.4609 40.6338 27.4023 41.2628 27.5264 41.8687C27.6505 42.4746 27.9515 43.0301 28.3914 43.4648C28.8314 43.8995 29.3904 44.1939 29.9977 44.3107C30.6051 44.4275 31.2334 44.3614 31.8032 44.1209C32.373 43.8804 32.8586 43.4762 33.1985 42.9595C33.5385 42.4429 33.7174 41.8369 33.7128 41.2185C33.7082 40.6 33.5201 39.9969 33.1725 39.4854C32.9441 39.1444 32.6504 38.8521 32.3083 38.6254C31.9663 38.3987 31.5827 38.2421 31.1797 38.1646C30.7767 38.0871 30.3624 38.0903 29.9606 38.174C29.5589 38.2576 29.1777 38.4201 28.8392 38.652Z" fill="white"/>
</svg>
