<svg id="圖層_1" data-name="圖層 1" xmlns="http://www.w3.org/2000/svg" viewBox="0 0 448 392"><defs><style>.cls-1{fill:#dfd6ad;}.cls-2{fill:#f9ede2;}.cls-3{fill:#fefdfc;}</style></defs><title>chat-color</title><path class="cls-1" d="M224,44C100.32,44,0,119.2,0,212c0,61.12,43.52,114.64,108.56,144A509.06,509.06,0,0,1,48,420c50.64,0,101.28-27.68,126.88-44.16A289.88,289.88,0,0,0,224,380c123.68,0,224-75.2,224-168S347.68,44,224,44Z" transform="translate(0 -28)"/><path class="cls-2" d="M224,28C100.32,28,0,103.2,0,196c0,61.12,43.52,114.64,108.56,144A509.06,509.06,0,0,1,48,404c50.64,0,101.28-27.68,126.88-44.16A289.88,289.88,0,0,0,224,364c123.68,0,224-75.2,224-168S347.68,28,224,28Z" transform="translate(0 -28)"/><path class="cls-3" d="M8,212C8,119.2,108.32,44,232,44c92,0,171.11,41.66,205.55,101.21C408.84,77.25,324.08,28,224,28,100.32,28,0,103.2,0,196a132.69,132.69,0,0,0,18.64,67.05A129.92,129.92,0,0,1,8,212Z" transform="translate(0 -28)"/></svg>