<svg width="24" height="24" viewBox="0 0 24 24" fill="none" xmlns="http://www.w3.org/2000/svg">
<g clip-path="url(#clip0_1106_5552)">
<path fill-rule="evenodd" clip-rule="evenodd" d="M12 24C18.6274 24 24 18.6274 24 12C24 5.37258 18.6274 0 12 0C5.37258 0 0 5.37258 0 12C0 18.6274 5.37258 24 12 24ZM13.9251 8.97082H18.4167V7.6875H13.9251V8.97082ZM16.2511 17.3124C18.2223 17.3124 19.2406 16.2197 19.5242 15.3874H17.4914C16.7824 16.2107 14.6309 16.1459 14.5475 14.0855H19.6981C19.7071 13.4746 19.6872 13.037 19.6371 12.7123C19.3734 11.0158 18.1658 9.87235 16.1882 9.87235C14.1727 9.87235 12.6809 11.1621 12.6809 13.671C12.6809 16.203 14.2786 17.3124 16.2511 17.3124ZM17.7782 12.8208H14.5924C14.7278 11.8897 15.2482 11.3969 16.1888 11.3969C17.0493 11.3969 17.7109 11.8281 17.7782 12.8208ZM4.30017 17.3047H8.44914C12.8022 17.3047 12.7277 12.9408 10.5069 12.1323C12.3421 11.1942 12.2754 7.75295 8.76163 7.70097H4.30017V17.3047ZM8.52486 11.5375H6.22515V9.61248H8.32466C10.3895 9.61248 10.1341 11.5375 8.52486 11.5375ZM6.22515 13.4624H8.40102C10.2092 13.4624 10.3292 15.3977 8.36894 15.3977H6.22515V13.4624Z" fill="white"/>
</g>
<defs>
<clipPath id="clip0_1106_5552">
<rect width="24" height="24" fill="white"/>
</clipPath>
</defs>
</svg>
