<svg width="24" height="25" viewBox="0 0 24 25" fill="none" xmlns="http://www.w3.org/2000/svg">
<g id="icon / social / white / cakeresume" clip-path="url(#clip0_293_5695)">
<path id="Subtract" fill-rule="evenodd" clip-rule="evenodd" d="M12 24.6802C18.6274 24.6802 24 19.3076 24 12.6802C24 6.05276 18.6274 0.680176 12 0.680176C5.37258 0.680176 0 6.05276 0 12.6802C0 19.3076 5.37258 24.6802 12 24.6802ZM17.9055 7.60558C18.0709 7.44521 18.2364 7.28482 18.4018 7.12429C18.3795 7.08613 18.3643 7.05875 18.3529 7.0383C18.3354 7.0069 18.327 6.99184 18.3161 6.97913C18.2706 6.92899 18.224 6.87886 18.1738 6.83338C15.9579 4.8361 13.3876 4.14702 10.5118 4.93346C5.05626 6.42588 2.88 12.8316 6.10911 17.306C7.97814 19.8956 10.5759 20.9922 13.7659 20.6045C15.4385 20.401 16.8721 19.6758 18.1097 18.5477C18.4204 18.265 18.4158 18.2592 18.1272 17.9706C17.992 17.8354 17.8565 17.7005 17.7209 17.5656C17.3817 17.228 17.0423 16.8903 16.7082 16.5475C16.5833 16.4194 16.4697 16.2805 16.3561 16.1414C16.3048 16.0787 16.2534 16.0159 16.201 15.9541C16.1364 16.0099 16.1067 16.0255 16.0903 16.0341C16.0841 16.0374 16.0798 16.0396 16.0763 16.0427C16.0459 16.0689 16.0165 16.0963 15.9873 16.1237C15.9599 16.1494 15.9325 16.175 15.9043 16.1995C14.539 17.3865 12.9673 17.7724 11.2422 17.2524C8.52964 16.435 7.16081 13.537 8.17985 10.888C8.99136 8.77703 11.2994 7.50731 13.5164 7.93813C14.4375 8.1171 15.2438 8.51061 15.9206 9.15655C16.0885 9.31687 16.1964 9.30929 16.3445 9.14198C16.4873 8.9807 16.6425 8.83077 16.7977 8.68087C16.8383 8.64167 16.8789 8.60248 16.9193 8.56308C17.2475 8.24343 17.5764 7.92455 17.9055 7.60558Z" fill="white"/>
</g>
<defs>
<clipPath id="clip0_293_5695">
<rect width="24" height="24" fill="white" transform="translate(0 0.680176)"/>
</clipPath>
</defs>
</svg>
