<svg width="24" height="24" viewBox="0 0 24 24" fill="none" xmlns="http://www.w3.org/2000/svg">
<g clip-path="url(#clip0_165_10341)">
<path fill-rule="evenodd" clip-rule="evenodd" d="M14.2171 23.7956C19.7854 22.7555 24 17.8699 24 12C24 5.37258 18.6274 0 12 0C5.37258 0 0 5.37258 0 12C0 17.9938 4.39433 22.9612 10.137 23.8563C10.1074 23.8091 10.0903 23.7533 10.0903 23.6935V15.1194H8.00762C7.83834 15.1194 7.70117 14.9822 7.70117 14.8129V11.6966C7.70117 11.5274 7.83834 11.3902 8.00762 11.3902H10.194V9.07636C10.1505 8.8258 9.96812 7.3807 11.2799 6.17377C12.4637 5.08464 13.9625 5 14.3936 5C14.451 5 14.4899 5.00141 14.5075 5.00227H16.9925C17.1618 5.00227 17.2989 5.13944 17.2989 5.30872V8.20616C17.2989 8.37538 17.1618 8.51261 16.9925 8.51261H15.1893C14.5558 8.51261 14.2347 8.81508 14.2347 9.41155V11.3903H16.9925C17.0798 11.3903 17.163 11.4276 17.2212 11.4928C17.2793 11.5579 17.3068 11.6449 17.2968 11.7318L16.9332 14.8883C16.9154 15.043 16.7845 15.1598 16.6288 15.1598H14.2345V23.6935C14.2345 23.7293 14.2284 23.7637 14.2171 23.7956Z" fill="white"/>
</g>
<defs>
<clipPath id="clip0_165_10341">
<rect width="24" height="24" fill="white"/>
</clipPath>
</defs>
</svg>
