<svg width="24" height="25" viewBox="0 0 24 25" fill="none" xmlns="http://www.w3.org/2000/svg">
<g id="icon / social / white / indeed" clip-path="url(#clip0_293_5691)">
<path id="Subtract" fill-rule="evenodd" clip-rule="evenodd" d="M12 24.6802C18.6274 24.6802 24 19.3076 24 12.6802C24 6.05276 18.6274 0.680176 12 0.680176C5.37258 0.680176 0 6.05276 0 12.6802C0 19.3076 5.37258 24.6802 12 24.6802ZM11.6192 13.2133V19.0538C11.6192 19.5927 11.7497 19.9972 12.0017 20.266C12.2627 20.5437 12.5799 20.6781 12.9803 20.6781C13.3871 20.6781 13.7222 20.5437 13.9742 20.2749C14.2275 20.0049 14.358 19.6004 14.358 19.0526V12.6412C13.7069 13.0226 12.9394 13.2364 12.1245 13.2364C11.9531 13.2364 11.7894 13.2287 11.6192 13.2133ZM16.713 5.7153C15.2624 4.49421 13.3308 4.46221 11.6346 5.0574C9.17345 6.05706 7.46191 8.23813 6.68801 10.8569C6.55625 11.3485 6.45008 11.84 6.39379 12.3481C6.39379 12.35 6.39323 12.3585 6.39234 12.3717C6.38556 12.4721 6.3602 12.8482 6.42577 12.7282C6.48093 12.6407 6.51275 12.5213 6.54227 12.4106C6.55246 12.3724 6.56238 12.3352 6.57288 12.3008C6.94768 11.0707 7.40435 9.95201 8.10534 8.88963C9.78362 6.48585 12.4827 4.93836 15.3352 5.79466C15.8648 5.96874 16.3369 6.22217 16.8102 6.52425C16.8177 6.52947 16.8292 6.5378 16.8439 6.5484C17.0053 6.66511 17.5488 7.05801 17.4139 6.6356C17.2911 6.27081 16.9829 5.96106 16.713 5.7153ZM12.9061 11.7772C14.0177 11.7772 14.9196 10.8749 14.9196 9.76257C14.9196 8.649 14.0177 7.7479 12.9061 7.7479C11.7945 7.7479 10.8939 8.65028 10.8939 9.76257C10.8939 10.8749 11.7945 11.7772 12.9061 11.7772Z" fill="white"/>
</g>
<defs>
<clipPath id="clip0_293_5691">
<rect width="24" height="24" fill="white" transform="translate(0 0.680176)"/>
</clipPath>
</defs>
</svg>
