<svg width="24" height="25" viewBox="0 0 24 25" fill="none" xmlns="http://www.w3.org/2000/svg">
<g id="icon / social / white / Linkedin" clip-path="url(#clip0_293_5676)">
<path id="Subtract" fill-rule="evenodd" clip-rule="evenodd" d="M12.0004 24.6802C18.6274 24.6802 23.9996 19.3079 23.9996 12.681V12.6794C23.9996 6.05242 18.6274 0.680176 12.0004 0.680176H12C5.37263 0.680176 0 6.05281 0 12.6802C0 19.3075 5.37263 24.6802 12 24.6802H12.0004ZM6.27291 10.5827H8.86611V18.9253H6.27291V10.5827ZM7.57029 6.43542C8.39896 6.43542 9.07269 7.10955 9.07269 7.93978C9.07269 8.76962 8.39896 9.44178 7.57029 9.44178C6.73928 9.44178 6.0675 8.76923 6.0675 7.93978C6.0675 7.10955 6.73889 6.43542 7.57029 6.43542ZM10.4929 10.5827H12.9801V11.7239H13.0157C13.3616 11.0674 14.2075 10.3765 15.4689 10.3765C18.0945 10.3765 18.5797 12.1038 18.5797 14.3492V18.9249H15.9876V14.868C15.9876 13.9004 15.9708 12.6555 14.6398 12.6555C13.2908 12.6555 13.085 13.7107 13.085 14.7988V18.9249H10.4929V10.5827Z" fill="white"/>
</g>
<defs>
<clipPath id="clip0_293_5676">
<rect width="24" height="24" fill="white" transform="translate(0 0.680176)"/>
</clipPath>
</defs>
</svg>
