<svg width="24" height="25" viewBox="0 0 24 25" fill="none" xmlns="http://www.w3.org/2000/svg">
<g id="icon / social / white / yourator" clip-path="url(#clip0_293_5687)">
<path id="Subtract" fill-rule="evenodd" clip-rule="evenodd" d="M12 24.6802C18.6274 24.6802 24 19.3076 24 12.6802C24 6.05276 18.6274 0.680176 12 0.680176C5.37258 0.680176 0 6.05276 0 12.6802C0 19.3076 5.37258 24.6802 12 24.6802ZM17.7585 16.3596C18.0465 15.8898 18.1958 15.393 18.0053 14.8182C17.8869 14.991 17.7838 15.1718 17.6812 15.3519C17.5017 15.6671 17.3234 15.98 17.0658 16.2438C15.1098 18.2409 12.7685 18.8979 10.1382 17.9768C7.50572 17.0556 6.05742 15.0758 5.8182 12.2951C5.65908 10.4517 6.29555 8.83776 7.54468 7.4793C8.24394 6.71943 9.08282 6.78871 9.65543 7.64924C9.84161 7.92959 9.99207 8.2435 10.1079 8.56065C10.4662 9.53809 10.727 10.5437 10.9035 11.5709C10.9066 11.5893 10.9098 11.6077 10.9129 11.626C11.1036 12.7372 11.2915 13.832 10.8006 14.9394C10.5755 15.446 10.6112 16.0284 10.7877 16.5772C11.0355 17.3468 11.9946 18.0666 12.6895 18.0049C12.8594 17.9897 13.0175 17.9529 13.0976 17.7927C13.1861 17.6138 13.0604 17.5261 12.9441 17.445C12.9281 17.4338 12.9124 17.4228 12.8973 17.4117C12.3464 17.0047 12.1981 16.4505 12.2728 15.7978C12.3128 15.4558 12.4037 15.131 12.4968 14.8031C13.1733 12.4325 14.8273 10.7731 16.5679 9.17331C16.7789 8.97847 16.9034 9.04667 17.016 9.26965C17.1665 9.56623 17.3808 9.54783 17.567 9.32918C18.3571 8.40153 19.1386 7.46631 19.9126 6.52459C20.0739 6.32759 20.01 6.15873 19.7372 6.20852C18.539 6.42609 17.3429 6.65557 16.15 6.89803C15.8827 6.95215 15.7279 7.13184 15.9238 7.40786C16.0873 7.6395 15.9682 7.74991 15.7874 7.8798C14.4604 8.83234 13.4126 10.0512 12.4784 11.3782C12.4594 11.4052 12.4425 11.4351 12.4253 11.4656C12.3651 11.5723 12.3007 11.6865 12.1255 11.7084C12.0732 11.4869 12.0238 11.2649 11.9744 11.043C11.8614 10.535 11.7486 10.0281 11.6017 9.5316C11.5768 9.44728 11.5521 9.36283 11.5275 9.27835C11.1962 8.1427 10.8639 7.00346 9.92388 6.16522C9.16076 5.48437 8.37708 5.37505 7.52087 5.92601C4.84076 7.65032 3.64142 10.1226 3.96399 13.2844C4.28114 16.3964 6.66358 18.9867 9.74636 19.674C12.8713 20.3711 16.1197 19.0267 17.7585 16.3596Z" fill="white"/>
</g>
<defs>
<clipPath id="clip0_293_5687">
<rect width="24" height="24" fill="white" transform="translate(0 0.680176)"/>
</clipPath>
</defs>
</svg>
