<svg width="72" height="72" viewBox="0 0 72 72" fill="none" xmlns="http://www.w3.org/2000/svg">
<path d="M20.5 40C22.9853 40 25 38.6569 25 37C25 35.3431 22.9853 34 20.5 34C18.0147 34 16 35.3431 16 37C16 38.6569 18.0147 40 20.5 40Z" fill="#F3BB4E"/>
<path d="M51.5 40C53.9853 40 56 38.6569 56 37C56 35.3431 53.9853 34 51.5 34C49.0147 34 47 35.3431 47 37C47 38.6569 49.0147 40 51.5 40Z" fill="#F3BB4E"/>
<path d="M21.8762 47.2184C23.4054 46.6006 25.145 47.3333 25.773 48.8552L25.7799 48.8708C25.7912 48.8964 25.8146 48.9477 25.8506 49.0211C25.9229 49.1683 26.0449 49.4016 26.2216 49.6924C26.5773 50.278 27.1395 51.0714 27.943 51.8635C29.5115 53.4095 32.0352 55 36 55C39.9648 55 42.4885 53.4095 44.057 51.8635C44.8605 51.0714 45.4227 50.278 45.7784 49.6924C45.9551 49.4016 46.0771 49.1683 46.1494 49.0211C46.1646 48.99 46.1776 48.9629 46.1884 48.9401C46.203 48.9089 46.2136 48.8856 46.2201 48.8708L46.2237 48.8627L46.227 48.8552C46.855 47.3333 48.5946 46.6006 50.1238 47.2184C51.66 47.8391 52.4022 49.5876 51.7816 51.1238L49.0712 50.0287C51.7816 51.1238 51.7804 51.1267 51.7804 51.1267L51.7791 51.1299L51.7763 51.1367L51.7698 51.1526L51.7527 51.1933C51.7396 51.2243 51.7229 51.263 51.7025 51.3089C51.6617 51.4005 51.6061 51.5211 51.5347 51.6664C51.3921 51.9567 51.1853 52.3484 50.9063 52.8076C50.3508 53.722 49.4945 54.9286 48.269 56.1365C45.7794 58.5905 41.8032 61 36 61C30.1968 61 26.2206 58.5905 23.731 56.1365C22.5055 54.9286 21.6492 53.722 21.0937 52.8076C20.8147 52.3484 20.6079 51.9567 20.4653 51.6664C20.3939 51.5211 20.3383 51.4005 20.2975 51.3089C20.2771 51.263 20.2604 51.2243 20.2473 51.1933L20.2302 51.1526L20.2237 51.1367L20.2209 51.1299L20.2196 51.1267C20.2196 51.1267 20.2184 51.1238 23 50L20.2184 51.1238C19.5978 49.5876 20.34 47.8391 21.8762 47.2184Z" fill="#F3BB4E"/>
<path fill-rule="evenodd" clip-rule="evenodd" d="M36 72C55.8823 72 72 55.8823 72 36C72 16.1177 55.8823 0 36 0C16.1177 0 0 16.1177 0 36C0 55.8823 16.1177 72 36 72ZM36 66C52.5685 66 66 52.5685 66 36C66 19.4315 52.5685 6 36 6C19.4315 6 6 19.4315 6 36C6 52.5685 19.4315 66 36 66Z" fill="#F3BB4E"/>
<path fill-rule="evenodd" clip-rule="evenodd" d="M66 36C66 52.5685 52.5685 66 36 66C19.4315 66 6 52.5685 6 36C6 19.4315 19.4315 6 36 6C52.5685 6 66 19.4315 66 36ZM20.5 40C22.9853 40 25 38.6569 25 37C25 35.3431 22.9853 34 20.5 34C18.0147 34 16 35.3431 16 37C16 38.6569 18.0147 40 20.5 40ZM51.5 40C53.9853 40 56 38.6569 56 37C56 35.3431 53.9853 34 51.5 34C49.0147 34 47 35.3431 47 37C47 38.6569 49.0147 40 51.5 40ZM21.8762 47.2184C23.4054 46.6006 25.145 47.3333 25.773 48.8552L25.7799 48.8708C25.7912 48.8964 25.8146 48.9477 25.8506 49.0211C25.9229 49.1683 26.0449 49.4016 26.2216 49.6924C26.5773 50.278 27.1395 51.0714 27.943 51.8635C29.5115 53.4095 32.0352 55 36 55C39.9648 55 42.4885 53.4095 44.057 51.8635C44.8605 51.0714 45.4227 50.278 45.7784 49.6924C45.9551 49.4016 46.0771 49.1683 46.1494 49.0211C46.1646 48.99 46.1776 48.9629 46.1884 48.9401C46.203 48.9089 46.2136 48.8856 46.2201 48.8708L46.2237 48.8627L46.227 48.8552C46.855 47.3333 48.5946 46.6006 50.1238 47.2184C51.66 47.8391 52.4022 49.5876 51.7816 51.1238L49.0712 50.0287C51.7816 51.1238 51.7804 51.1267 51.7804 51.1267L51.7791 51.1299L51.7763 51.1367L51.7698 51.1526L51.7527 51.1933C51.7396 51.2243 51.7229 51.263 51.7025 51.3089C51.6617 51.4005 51.6061 51.5211 51.5347 51.6664C51.3921 51.9567 51.1853 52.3484 50.9063 52.8076C50.3508 53.722 49.4945 54.9286 48.269 56.1365C45.7794 58.5905 41.8032 61 36 61C30.1968 61 26.2206 58.5905 23.731 56.1365C22.5055 54.9286 21.6492 53.722 21.0937 52.8076C20.8147 52.3484 20.6079 51.9567 20.4653 51.6664C20.3939 51.5211 20.3383 51.4005 20.2975 51.3089C20.2771 51.263 20.2604 51.2243 20.2473 51.1933L20.2302 51.1526L20.2237 51.1367L20.2209 51.1299L20.2196 51.1267C20.2196 51.1267 20.2184 51.1238 23 50L20.2184 51.1238C19.5978 49.5876 20.34 47.8391 21.8762 47.2184Z" fill="white"/>
<path d="M47.6712 9.80127L47.671 9.80044L47.6709 9.7999L47.6708 9.79972L46.5638 4.72721C57.433 8.39762 65.7674 17.5754 68.2435 28.9395C67.3003 29.0295 66.1867 29.0947 64.9903 29.0836C61.4216 29.0504 57.744 28.3422 55.368 26.2945C53.0934 24.3341 51.1389 20.4545 49.7122 16.5889C49.0284 14.736 48.5142 13.0244 48.1713 11.7753C48.0003 11.1525 47.8731 10.6489 47.7896 10.3056C47.7478 10.134 47.7171 10.0027 47.6974 9.91691C47.6875 9.87401 47.6804 9.84249 47.676 9.82299L47.6715 9.80286L47.6712 9.80127ZM9.00558 29.0818C6.97282 29.0962 5.17006 28.9927 3.77184 28.8692C7.02998 14.0726 20.2239 3 36 3C39.2236 3 42.3393 3.46231 45.2846 4.32422L42.2635 8.74804L42.2633 8.74819L42.2632 8.74841L42.2627 8.74907L42.2607 8.752L42.2459 8.77348C42.2318 8.79389 42.2093 8.82633 42.1787 8.87018C42.1174 8.95789 42.0234 9.09114 41.8989 9.26482C41.6496 9.6123 41.2783 10.1208 40.8003 10.7495C39.8429 12.0088 38.4652 13.7405 36.7911 15.6216C33.3873 19.4462 28.9782 23.6352 24.538 25.8927C19.7226 28.341 13.8598 29.0474 9.00558 29.0818Z" fill="#F3BB4E" stroke="#F3BB4E" stroke-width="6"/>
</svg>
