<svg xmlns="http://www.w3.org/2000/svg" viewBox="0 0 85.25 282.02"><defs><style>.cls-1,.cls-5{fill:#57394a;}.cls-2{fill:#fe893d;}.cls-10,.cls-15,.cls-16,.cls-2,.cls-21,.cls-4,.cls-5,.cls-6,.cls-9{fill-rule:evenodd;}.cls-3,.cls-4{fill:#fab393;}.cls-6{fill:#fec281;}.cls-7,.cls-9{fill:#006c69;}.cls-10,.cls-8{fill:#048582;}.cls-11{fill:#c04e47;}.cls-12{fill:#b2a49e;}.cls-13{fill:#4c2c3d;}.cls-14,.cls-15{fill:#ede7d6;}.cls-16{fill:#7c2225;}.cls-17,.cls-18{fill:#d1924a;}.cls-18{isolation:isolate;font-size:1.78px;font-family:Sigmar, Sigmar;}.cls-19{letter-spacing:-0.03em;}.cls-20{letter-spacing:0.02em;}.cls-21{fill:#2c2836;}</style></defs><title>people</title><g id="圖層_2" data-name="圖層 2"><g id="OBJECTS"><path class="cls-1" d="M41.48,47.55c-2-2.51-5.07-3.57-7.84-5s-5.59-3.58-6-6.91a6.1,6.1,0,0,0-.39-2,4,4,0,0,0-1.54-1.36C22,29.92,21.1,24.76,20.82,20a7.12,7.12,0,0,1,.45-3.33A7.14,7.14,0,0,1,24,13.79c7.4-4.88,15.38-2.6,22.87-7.31C49.06,5.1,51,3.24,53.16,1.84S58-.49,60.25.27A4.69,4.69,0,0,1,63,6.44a8,8,0,0,1-3.77,3.24c3.21.43,5.16,4.3,4.61,7.83s-3,6.55-5.9,8.51c-2.13,1.46-4.55,2.5-6.28,4.5-3,3.44-3,8.56-4.7,12.85-1.17,3-4.29,6-6.82,4.56"/><path class="cls-2" d="M44.3,52.5a75.72,75.72,0,0,0-13.38-.17C4.69,54.43,2.62,74.41.69,91.26-1,106.3-1.52,123.74,24,126.74"/><path class="cls-3" d="M23.88,104.61S25.07,75.34,25,73.2c-.31-8.28-.3-15.6,4.09-18.75,2.45-1.76,8.34-4.18,12.08-5.39,3.52-1.13,19.67,2.87,18.06,12.51l.12,36.58c-3.61,7.72-31.06,11.66-35.46,6.46"/><path class="cls-3" d="M57.71,106.87c3.89,13.53,4.86,23.86.44,29.44,0,0-39.36-4-37.64-27.55C22.69,79,53.32,85.43,53.32,85.43a206.53,206.53,0,0,0,4.39,21.44"/><path class="cls-3" d="M43.92,59.86c-3.76-1.35-6.23-4.94-5.53-8L40.8,41.27c.71-3.08,4.32-4.49,8.08-3.14s6.22,4.93,5.52,8L52,56.71c-.71,3.09-4.32,4.5-8.07,3.15"/><path class="cls-4" d="M66.59,166.68c.06,2.3.36,4.59.24,6.89A8.56,8.56,0,0,1,64,179.33c-.45.47-2.31,3.07-3.32,2s-1-2.87-1-4.15a52.49,52.49,0,0,1,.66-6,11,11,0,0,1,.55-3A12,12,0,0,1,63.2,165Z"/><path class="cls-5" d="M56.91,52.72c-10.11,12.71-5.82,30.22-3,44.6,1.4,7.25,2.64,14.53,4,21.79,2.84,15.36-.32,31.35-1.34,47,3.37,3.42,7.42,5.69,12.75,4.83.93-24.75,2.34-20.94,1.65-45.84-.39-14.35-.27-56.72-4.85-64C63.94,57.68,56.91,52.72,56.91,52.72Z"/><path class="cls-6" d="M53.19,57.94C55,54.86,58.92,53.57,61.52,53c2.82-.64,3.88,2.45,5.54,6.79,1.38,3.63,2,9.86,2.34,15.74,1,14.46-5,25.51-9.05,32-4.63,7.44-9,10.34-9.83,9.8s-1.13-2.47-1.19-3.59c-.18-3.51.27-7,.15-10.53-.17-4.74.66-9.15,1-13.83.53-7.06,0-14.25,1-21.25C51.91,64.94,51.69,60.56,53.19,57.94Z"/><path class="cls-7" d="M60.28,202.52h0s3.87-33.45,5.17-44.58c1.12-9.56-2.55-55.74-15.92-46.05-15.4,11.15-23.16,24.43-18.2,46.88,1.76,8,7.21,38.42,9.37,50.53-4.68,8.26-4.58,18.86-.17,26.2,0,0,13.89,37.87,15.15,39.12,5.2,5.21,8.93.56,9.47.3l-5.55-2.17C61.21,272,60.28,203,60.28,202.52Z"/><path class="cls-8" d="M30.64,201.5h0s10.6-32,14.14-42.69c3-9.15,8.85-55.16-6.22-48.29-17.34,7.91-27.65,19.4-27.36,42.39.09,7.38-.6,33.35-1,47.36-6.77,7.95-9.35,20.61-6.46,28.87,0,0,10.14,44.6,10.89,46.4,2.07,5,7.89,1.07,8.94-1.35Z"/><path class="cls-9" d="M24.09,128.79h.1v.45l0,.17v0l-.06.12-.07.12-.06.13-.13.23-.1.19,0,.07,0,0,0,.1-.05.1-.05.1-.05.1,0,.1-.05.09-.1.2-.11.19-.1.2-.11.19,0,.08-.06.11-.05.09-.05.09-.05.1-.05.09,0,.09,0,.1,0,.09,0,.09,0,.1,0,.09,0,.1,0,.09,0,.1,0,.09,0,.1,0,.09-.14.62-.14.61-.13.62-.07.3-.07.31-.06.3-.06.31-.07.3-.06.31-.06.3-.05.31-.06.3,0,.3-.05.31-.05.3-.05.31-.05.3,0,.31,0,.3,0,.31,0,.31,0,.3,0,.31,0,.31,0,.31v10.15l0,1,0,1,0,1,0,1,0,1,0,2,.05,2,0,1,0,1,0,1,0,1,0,1v7.52l0,.5v.5l0,.5,0,.69,0,.7v1.38l0,1.38v.69l0,.7,0,.69,0,.69,0,.69V183l0,.35,0,.34v.35l0,.34,0,.35,0,.34,0,.35,0,.34,0,.35,0,.34,0,.35,0,.34,0,.35,0,.34,0,.35,0,.34,0,.35,0,.23v.12l0,.34,0,.35-.05.34,0,.35L20,191l0,.35-.06.34-.06.35-.07.34-.07.35-.07.35-.07.34-.08.35-.07.34-.09.35-.08.35-.09.34-.09.35-.1.34-.1.35-.05.17-.05.18,0,.17-.06.17-.05.17-.06.18-.11.36-.12.36-.13.36-.12.36-.13.36-.12.36-.13.36-.13.35-.13.36-.14.35-.13.36-.13.35-.14.35-.13.36-.27.7-.28.7-.28.7-.5,1.29,0,.1-.28.69-.27.7-.27.69-.13.35-.14.35-.13.34-.13.35-.12.35-.13.34-.13.35-.12.35-.12.35-.12.35-.12.35-.12.34-.11.36-.11.35-.11.35-.11.35-.11.35-.1.35-.1.35-.09.36-.1.35-.09.36-.09.35,0,.18,0,.18-.05.18,0,.18,0,.18,0,.18,0,.18,0,.18,0,.18,0,.18,0,.18,0,.18,0,.18,0,.18,0,.18,0,.18,0,.19,0,.18,0,.18,0,.19,0,.18,0,.18,0,.32,0,.31,0,.31,0,.31,0,.31,0,.31,0,.31,0,.31,0,.31,0,.21v.1l0,.31,0,.31,0,.31,0,.3,0,.31,0,.31v.31l0,.3v5.76l0,.3v.3l0,.3v.3l0,.3,0,.3,0,.3,0,.3,0,.3,0,.3,0,.3,0,.3,0,.29,0,.3,0,.3,0,.3,0,.3,0,.29,0,.3,0,.3,0,.3,0,.29,0,.3,0,.3,0,.29,0,.3.05.3,0,.29,0,.3,0,.3.05.29,0,.3.05.3,0,.29,0,.3.05.3,0,.29.09.56v0l.1.6.11.59.11.59.11.6.12.59.12.59.12.59.13.6.12.59.13.59.13.6.14.59.13.6.14.6.14.59.14.6.15.6h0l.14.59.15.6.15.6.15.6.15.6.15.6.16.61.15.6.16.61,0,.2.05.2,0,.2,0,.2,0,.2,0,.2,0,.15v.05l0,.2,0,.2,0,.21,0,.2,0,.2,0,.2,0,.21,0,.2v.2l0,.21,0,.2,0,.2v.62l0,.2v.61l0,.41v2.44l0,.81v4l-.13.16-.15-.13,0-.2,0-.2,0-.19,0-.2-.05-.4,0-.39,0-.4,0-.4,0-.41,0-.4-.08-.8-.07-.81,0-.34V266l0-.41,0-.4,0-.4,0-.4,0-.4,0-.4,0-.2,0-.2,0-.2,0-.2,0-.19,0-.2,0-.2,0-.2,0-.19,0-.2,0-.19,0-.2,0-.19,0-.19,0-.2,0-.19,0-.19,0-.19-.05-.19v0l0-.15,0-.19,0-.19,0-.19-.05-.18-.05-.19,0-.19-.16-.6-.16-.61-.16-.6-.16-.61-.16-.6-.16-.6-.15-.6-.16-.6-.15-.59h0l-.15-.6-.15-.6-.14-.6-.15-.6-.14-.6-.14-.6-.13-.6-.14-.59-.13-.6-.13-.6-.13-.6-.12-.6-.12-.59-.12-.6-.12-.6-.11-.6-.11-.6v0l-.1-.56-.05-.3-.05-.3,0-.3-.05-.3,0-.3,0-.3,0-.3-.05-.3,0-.3,0-.3,0-.3,0-.31,0-.3,0-.3,0-.3,0-.3,0-.3,0-.3,0-.31,0-.3,0-.3,0-.3,0-.31,0-.3,0-.3,0-.3,0-.31,0-.3,0-.31,0-.3,0-.3,0-.31,0-.3,0-.31v-.3l0-.31,0-.31v-5.87l0-.32v-.62l0-.32,0-.31v-.32l0-.31,0-.32v-.31l0-.32,0-.32,0-.31,0-.32,0-.32,0-.32,0-.32,0-.32,0-.32,0-.19,0-.19,0-.19,0-.2,0-.19,0-.19,0-.19,0-.19,0-.19,0-.19,0-.19,0-.18,0-.19,0-.19,0-.19,0-.18,0-.19,0-.19,0-.18,0-.19,0-.19,0-.18.09-.37.09-.37.09-.37.1-.36.1-.37.1-.36.11-.37.1-.36.11-.36.11-.36.12-.36.11-.36.12-.36.12-.35L12,210l.12-.36.13-.35.12-.36.13-.35.13-.35.13-.36.13-.35.13-.35.26-.7.27-.71.27-.7,0-.1.49-1.29.27-.7.27-.7.27-.7.13-.35.13-.35.13-.35.12-.35.13-.35.13-.35.12-.35.12-.35.13-.36.12-.35.11-.35.12-.36.11-.35.12-.35.05-.17,0-.16.05-.17.05-.17,0-.16.05-.17.09-.33.09-.33.09-.33.08-.33.08-.33.07-.34.08-.33.07-.33.06-.33.07-.34L18,192l.06-.33.05-.33.06-.34,0-.33.05-.33.05-.34,0-.33,0-.34,0-.33,0-.12,0-.22,0-.33,0-.34,0-.33,0-.34,0-.33,0-.34,0-.34,0-.33,0-.34,0-.34,0-.34,0-.34,0-.34,0-.33,0-.34,0-.35v-.34l0-.34,0-.68,0-.68,0-.69,0-.69,0-.68,0-1.39v-.69l0-.7,0-.69,0-.7,0-.5,0-.49,0-.5V173l0-.49v-1l0-.5V147.23l0-.5v-.5l0-.5,0-.49,0-.5,0-.5,0-.5,0-.5v-.8l0-.16v-.16l0-.16,0-.32,0-.31,0-.32,0-.31,0-.32,0-.31,0-.31.05-.31.06-.31,0-.31.06-.31.06-.31.07-.31.06-.3.07-.31.06-.31.07-.31.07-.3.07-.31.08-.3.07-.31.08-.31.15-.61.15-.61.16-.62,0-.11,0-.11,0-.12,0-.11,0-.1,0-.11.05-.11.05-.1.05-.1.05-.11,0-.1L22,132l.06-.1,0-.09.06-.1.05-.1.07-.1.05-.09.12-.18.12-.19.11-.18.12-.18,0-.09.06-.09.05-.09,0-.1.05-.09.05-.09,0-.06.05-.08.11-.19.14-.22.07-.12.07-.11.06-.11,0,0,.07-.07,0,0,0,0h0l0,0,0,0h0l0,0h0l0,0h0v0h0v0h0v0h0v0H24l-.09-.12.12-.1Z"/><path class="cls-10" d="M51.06,137.56l0,.17v.16l0,.17,0,.16v1.35l0,.18v.17l0,.34v.34l0,.35v7.92l0,.35v.35l0,.35v.53l0,.17v.18l0,.17v.18l0,.17,0,.18,0,.17,0,.18,0,.17,0,.17,0,.18,0,.17,0,.17,0,.18,0,.17,0,.14v0l0,.17,0,.17,0,.17,0,.17,0,.17,0,.09,0,.08v.09l0,.1v.3l0,.1v.22l0,.22,0,.23v.12l0,.12V156l0,.12,0,.12,0,.12,0,.12,0,.12v.07l0,.06,0,.06,0,.06,0,.06,0,.06,0,.06,0,.06,0,.06,0,.06,0,.06,0,.06,0,.06,0,.06,0,.06,0,.05h0l0,.05,0,.06-.06.07-.06.07-.06.07-.06.06L49,158l-.06.06-.07.06-.06,0-.07.05-.07,0-.07.05-.07,0-.08,0-.07,0-.07,0-.07,0-.08,0-.07,0-.07,0-.08,0-.07,0H46.67l-.13,0-.25,0-.25,0H44.89l-.25,0-.25,0H40.58l-.25,0h-.87l-.12,0h-.12l-.12,0H39l-.12,0-.12,0-.12,0-.12,0-.11,0-.12,0-.12,0L38,159l-.11,0-.12,0-.11,0-.12,0-.11,0-.11,0-.11,0-.15,0,.06-.14.11-.06.11,0,.11-.05.12,0,.11-.05.12-.05.11,0,.12-.05.12,0,.12,0,.12,0,.12,0,.12,0,.12,0,.12,0,.12,0,.12,0,.13,0,.12,0,.13,0,.12,0,.13,0,.12,0,.13,0,.09,0h0l.13,0,.25,0,.26,0,.25,0,.26,0,.26,0,.25,0,.26,0,.51,0,.51-.06.25,0,.24,0,.25,0,.24,0h.08l.16,0,.24,0,.24,0,.11,0,.12,0H47.6l0,0h0l0,0h0l0,0,0,0h0l0,0,0,0h0l0,0,0,0h0l0,0,0,0h0l0,0,0,0,0,0,0,0,0,0h0l0,0,0,0h0l0,0,0-.05,0,0,0-.05,0,0,0,0v0l0,0h0l0,0v0l0,0,0,0,0,0v0l0,0v0l0,0v0l0,0v-.09l0,0v-.08l0-.09,0-.09,0-.1v-.09l0-.1v-.32l0-.1,0-.23,0-.22,0-.23v-.23l0-.12v-.11l0-.12,0-.12,0-.11,0-.12,0-.16,0-.16,0-.16,0-.16,0-.16v0l0-.14,0-.16,0-.16,0-.16,0-.17,0-.16,0-.17,0-.16,0-.17,0-.16,0-.17,0-.17,0-.16v-.17l0-.17,0-.17v-.17l0-.16v-.17l0-.35,0-.34,0-.34,0-.34v-1.73l0-.34v-.7l0-.69v-1.38l0-.34V143l0-.68,0-.34,0-.34,0-.35,0-.35,0-.35,0-.35,0-.35,0-.18v-.17l0-.18v-.17l0-.18,0-.17,0-.17,0-.17,0-.17,0-.18,0-.17,0-.17,0-.13v0l0-.18v-.05l0,0,0-.06,0-.05,0-.06,0-.06.07-.12.07-.14.08-.14.08-.14.08-.15.07-.13h0l.09-.11,0-.06,0,0,0-.05h0l0-.05,0,0h0l0,0h0v0h0v0h0v0h0v0h0l0,0h0l-.09-.13h0l.13-.09h.1v0l0,0v.57l0,.16h0l-.06.15-.06.15-.06.16-.06.14-.06.14,0,.13,0,0v.05l0,0h0l0,.05v0Z"/><path class="cls-10" d="M43.6,160.4l.07.14,0,0v1l0,.13v.13l0,.14v.13l0,.13,0,.13,0,.13,0,.13,0,.13,0,.13,0,.13,0,.26.05.26.06.26.06.26.06.26,0,.23v0l.05.27.06.26.11.52.12.53.06.26,0,.27.06.26,0,.27.06.27,0,.26L45,168l0,.27,0,.27,0,.14,0,.13.1.68.1.67.1.67.11.67.11.66.11.67.11.67.11.67.12.67.12.67.12.66.12.67.24,1.34.2,1.09,0,.24.24,1.34.24,1.34.11.67.12.67.12.67.11.67.11.67.12.67.11.67.1.67.11.68.1.67,0,.22.06.46.1.67,0,.32,0,.31,0,.32,0,.32,0,.32,0,.31,0,.32,0,.32,0,.31,0,.32,0,.32,0,.31h0l0,.32,0,.32,0,.31,0,.32,0,.32,0,.32,0,.31,0,.32,0,.32,0,.31v.32l0,.32v.31l0,.32v1.27l0,.63V208l0,1.26,0,1.27,0,2.51,0,1.26V225l0,.31v.62l0,.31,0,.31v.31l0,.31,0,.31,0,.31,0,.31,0,.31,0,.31,0,.31,0,.31,0,.31,0,.31,0,.31,0,.31,0,.22,0,.22,0,.22,0,.22,0,.22,0,.22,0,.23,0,.22,0,.22,0,.23,0,.22,0,.23,0,.22,0,.14,0,.09,0,.23,0,.23,0,.22,0,.23,0,.23,0,.23.05.23,0,.23,0,.23.05.22.11.46.1.46.11.46.11.46.12.46.11.46.12.46.12.46.12.45.13.46.12.45.13.45.13.45.12.45.13.45.13.44.25.88.26.87.12.42.12.44.12.43.12.44.12.45.11.44.11.45.11.45.11.46.1.45.11.47.1.46.1.46.09.47,0,.15.07.32.09.47.09.48.09.47.08.48.09.48.08.48.08.49.08.48.07.49.08.48.07.49.07.49.06.49.07.49.06.49.06.49L56,260l.05.49.06.49.05.49,0,.49,0,.49.05.49,0,.49,0,.49,0,.49,0,.46v0l0,.49,0,.48,0,.49,0,.48v.48l0,.48v4.68l0,.45v.45l0,.45,0,.44,0,.44,0,.44-.25.24-.24-.26v-3.56l0-.46v-.92l0-.47,0-.47,0-.47,0-.47,0-.47,0-.48,0-.47,0-.48,0-.48,0-.48,0-.48v0l0-.46,0-.48,0-.49-.05-.48,0-.49,0-.48-.06-.49-.05-.48-.06-.49-.06-.49-.06-.48-.07-.49-.07-.48-.07-.48-.07-.49-.07-.48-.08-.48-.08-.48-.08-.48-.08-.48-.09-.48-.08-.47-.09-.48-.09-.47-.09-.47-.1-.47-.1-.46-.07-.32,0-.15-.1-.46-.1-.46-.1-.45-.11-.46-.11-.45-.11-.44-.11-.45-.12-.44-.11-.44-.12-.43-.12-.43-.12-.43-.13-.42-.13-.43-.26-.86-.26-.88-.14-.44-.13-.45-.13-.45-.14-.45-.13-.45-.13-.46-.13-.46-.13-.46-.12-.46-.13-.46-.12-.46-.12-.47-.12-.46-.12-.47-.11-.46-.11-.47L49.4,236l-.06-.24-.05-.23,0-.23-.05-.23,0-.24,0-.23,0-.23,0-.23,0-.24,0-.09,0-.14,0-.23,0-.23,0-.23,0-.23,0-.23,0-.23,0-.23,0-.23,0-.23,0-.23,0-.23,0-.23,0-.22,0-.32,0-.31,0-.31,0-.32,0-.31,0-.32,0-.31,0-.32,0-.31,0-.32,0-.31,0-.31,0-.32v-.31l0-.32,0-.31,0-.32V225l0-.32v-.63l0-.31,0-.63v-.63l0-.63V214.3l0-1.26,0-2.52,0-1.26v-8.17l0-.62v-.63l0-.63V198l0-.31V197l0-.31,0-.31v-.31l0-.32,0-.31,0-.31,0-.31,0-.31,0-.32h0l0-.31,0-.31,0-.31,0-.31,0-.32,0-.31,0-.31,0-.31,0-.31,0-.31,0-.31,0-.32-.09-.67-.06-.45,0-.22-.09-.67-.09-.67-.09-.67-.09-.67-.1-.67-.09-.67-.1-.67-.1-.67-.1-.67-.11-.67-.2-1.34-.21-1.34,0-.25-.17-1.1-.2-1.34-.1-.67-.1-.68-.1-.67-.1-.67-.09-.68-.1-.67-.09-.67-.09-.68-.09-.67-.09-.68-.08-.68-.08-.67,0-.13v-.13l0-.27,0-.26,0-.26,0-.26-.05-.27,0-.26,0-.26-.05-.27,0-.26-.1-.53-.1-.53,0-.26-.05-.27v0l0-.23,0-.27,0-.27,0-.27,0-.27,0-.27,0-.13v-2.34l0-.1,0,0,.08-.14.11-.11Z"/><path class="cls-10" d="M49,158.24h1.69l.2,0h.57l.19,0h.19l.19,0,.19,0,.19,0,.2,0,.19,0h.07l.12,0,.19,0,.19,0,.18,0h0l.19,0,.19.05.19.06.19.05.09,0,.1,0,.19.05.19.06.19.07.19.06.19.07.22.37-.38.21-.19,0-.19,0-.19,0-.19,0-.19,0h-.1l-.09,0-.19,0-.18,0-.19,0-.19,0h0l-.17,0-.19,0-.19,0h-.18l-.19,0-.18,0-.19,0-.18,0-.19,0-.18,0-.19,0h-.18l-.18,0h-.19l-.18,0h-.93l-.36,0H46l-.26,0-.36,0L45,159h0l-.36,0-.36,0h-.09l-.27-.07-.2,0-.15-.09-.09-.09.09-.09.16-.08.2,0,.27-.06h.09l.35,0,.36,0h0l.32,0,.36,0,.26,0H49Z"/><path class="cls-3" d="M62.49,43.4c.36,5.1-11.91,4.51-16.41,3.07C39.35,44.31,23.7,28.26,29.22,19.22s20.13-8.92,26.29-5.66,6.17,18.54,7,29.84"/><path class="cls-3" d="M40.12,34.46c2.25,2.07,3.12,4.5,2.09,5.37-3.45,2.92-6,3.11-8.26,1s-2.08-4.55-.37-6.32a4.41,4.41,0,0,1,6.54-.08"/><path class="cls-11" d="M38.73,35.71c1.45,1.34,2,2.91,1.35,3.47-2.23,1.89-3.88,2-5.33.67a2.67,2.67,0,0,1-.24-4.09,2.85,2.85,0,0,1,4.22,0"/><path class="cls-12" d="M52.71,49s3.18,9.64.59,9.89c-12,1.15-15.83-10.74-15.83-10.74a43.8,43.8,0,0,0-9.75,3.27c-3.32,1.7-6.08,4.46-6.91,8.06a17.9,17.9,0,0,0-.23,4.73,246.12,246.12,0,0,1-6,63.88c-.21.93-.38,2,.27,2.63a2.38,2.38,0,0,0,1.28.48c17.46,2.92,32.67,11,50.24,5.38-.77-17.73.11-40.06-.67-57.79-.13-3,.17-16.33-.74-19.18C63.14,54.08,60.3,52.13,55.56,49Z"/><path class="cls-13" d="M61.82,31.38c1.86,2.17.51,5.74,1.24,8.56.45,1.73,1.69,3.12,2.18,4.84S65,49,63.14,49.34A8.14,8.14,0,0,1,61.94,57a2,2,0,0,1-1,.82c-1,.3-1.61-.76-2.31-1.4-1.57-1.45-4.2-.83-6.45-.43s-5.13.1-5.61-2c-.14-.61-.11-1.4-.67-1.66a2.22,2.22,0,0,0-.93-.06c-2.49.09-4-2.45-4.37-4.83s-.18-5-1.42-7A17.57,17.57,0,0,0,40,32.12c1.51.08,2.18,1.76,2.45,3.21s.62,3.16,2,3.64a3.48,3.48,0,0,0,3.24-1A24.84,24.84,0,0,0,50,35.13,11.77,11.77,0,0,1,62.17,31.3"/><path class="cls-1" d="M59.47,29.94C61,29.86,63,32.54,63.9,33.7s2.44,1.55,3.48,2.57a.94.94,0,0,1,.32.56c.06.6-.73.9-1.31.9A6.65,6.65,0,0,1,62,36a2.79,2.79,0,0,1,.62,1.28A1.14,1.14,0,0,1,62,38.54a1.37,1.37,0,0,1-.94-.2,29,29,0,0,1-3.25-2,3.49,3.49,0,0,1,.38,1.42A1.29,1.29,0,0,1,57.38,39a1,1,0,0,1-1.21-.66A3.62,3.62,0,0,1,56,36.75a11.32,11.32,0,0,1-2.54,3.64,3.46,3.46,0,0,1-.66-2.5,1.81,1.81,0,0,1-1.9,2,5.15,5.15,0,0,1,.23-1.94C49.23,39.49,47,41,44.66,40.63c-.39-.07-.87-.36-.73-.77a.94.94,0,0,1,.26-.34l4.27-4.15A26.2,26.2,0,0,1,53,31.59a14.69,14.69,0,0,1,6.48-1.65"/><path class="cls-1" d="M55.66,11.82c-3.08-1.8-7.13-2-10.71-1.44a62.37,62.37,0,0,0-9.59,2.52,29.74,29.74,0,0,0-8.6,4c-4.7,3.58-1.17,10,1.83,13.6,1.54,1.84,3.53,3.8,6,4.35a4.63,4.63,0,0,0,3.09-.28c1.17-.57,1.81-2,3.46-.65a4.4,4.4,0,0,1,1,1.92A.49.49,0,0,0,43,35.8a9.64,9.64,0,0,0-.94-5.2c-.87-1.81-2.46-3.17-3.37-4.9a1.25,1.25,0,0,1-.34-1.44c-.31-.7-.15-1.17.5-1.39.72-.71,1.82-.52,2.73-.36s2,.59,3.06.85a22.85,22.85,0,0,0,5.39.78c3.15.05,7.28-1,8.94-3.91a4.91,4.91,0,0,0,.19-4.54.52.52,0,0,0,0-.36,9.8,9.8,0,0,0-1.06-1.52,16.67,16.67,0,0,0-1.94-2.15.28.28,0,0,0-.45.16l.45.28,1,1.41a7.87,7.87,0,0,1,1.44,1.85.61.61,0,0,1,0,.12l0,0,0,.07c0-.08-.08-.16-.13-.24a12.36,12.36,0,0,0-2.36-3.17,9.22,9.22,0,0,1,1.81,1.62,9.23,9.23,0,0,1,1.1,1.88.52.52,0,0,1-.29.34,4.24,4.24,0,0,0-.18-.5l-1.52-2a8.67,8.67,0,0,0-.73-.63L55.71,12A.21.21,0,0,1,55.66,11.82ZM42.06,34.57a6.85,6.85,0,0,1,.42,1l-.45,0A7.74,7.74,0,0,0,42.06,34.57Zm.52,0a8.65,8.65,0,0,1,.39,1l-.44,0A7.45,7.45,0,0,0,42.58,34.54Z"/><path class="cls-6" d="M23.48,52.93c1.76-3.08,5.73-4.37,8.34-5,2.82-.63,3.87,2.46,5.53,6.8,1.39,3.63,2,9.85,2.35,15.74.95,14.45-5,25.5-9.06,32-4.63,7.45-9,10.35-9.82,9.8s-1.14-2.46-1.2-3.58c-.18-3.51.27-7,.15-10.53-.17-4.74.67-9.16,1-13.84.54-7.06,0-14.25,1-21.24C22.2,59.93,22,55.55,23.48,52.93Z"/><circle class="cls-14" cx="13.82" cy="183.58" transform="translate(-26.99 4.06) rotate(-8.5)"/><path class="cls-15" d="M13.46,183.22h0Z"/><circle class="cls-14" cx="19.85" cy="179.37" transform="matrix(0.99, -0.14, 0.14, 0.99, -25.17, 4.61)"/><path class="cls-15" d="M19.77,179.53l-.08.09-.06,0a.3.3,0,0,1,.2-.28h0a.13.13,0,0,1,0,.06l-.06.1"/><circle class="cls-14" cx="19.77" cy="179.53" transform="translate(-23.03 4.06) rotate(-7.42)"/><path class="cls-15" d="M16.76,184.13h0a.09.09,0,0,1,.09,0s0,0,0,0-.06,0-.08,0,0,0,0,0"/><path class="cls-15" d="M16.61,184.06l0,0a0,0,0,0,1,0,0h-.09l0-.05h.05"/><circle class="cls-14" cx="16.51" cy="184.11" r="0.01" transform="translate(-25.98 4.21) rotate(-8.16)"/><path class="cls-15" d="M15.15,184.22s0,0-.06,0a.33.33,0,0,1,0-.06h.1a.13.13,0,0,1,0,.06"/><path class="cls-15" d="M13.51,182s0,0,0,0l0,0s0,0,0,0"/><circle class="cls-14" cx="13.82" cy="183.53" transform="translate(-26.78 4.01) rotate(-8.44)"/><path class="cls-15" d="M13.81,183.54v0s0,0,0,0"/><path class="cls-16" d="M11.16,190.86l13.4-12-8.36-9.09a1.05,1.05,0,0,0-1.47-.07L2.87,180.31a1,1,0,0,0-.07,1.45Z"/><path class="cls-17" d="M17.19,177.41a5.17,5.17,0,0,1-.55,1.07,5.72,5.72,0,0,0,.88.57,3,3,0,0,0-.33-1.64m-.46-.63a4.44,4.44,0,0,0-1.34.4,6.67,6.67,0,0,0,.43.53l.5.5a4.77,4.77,0,0,0,.57-1.25l-.12-.14s0,0,0,0m-2.08-1a6.31,6.31,0,0,0,.5,1,5.75,5.75,0,0,1,1.19-.4,3.11,3.11,0,0,0-1.69-.61m-.35,6a5.27,5.27,0,0,0-.46-.92,4.89,4.89,0,0,1-1.13.39,3.17,3.17,0,0,0,1.59.53m1-1.81a7,7,0,0,1-1,.7,5.83,5.83,0,0,1,.53,1.1,3,3,0,0,0,1.58-.61Zm.32-.28,1.07,1.2a3,3,0,0,0,.8-1.45,5.39,5.39,0,0,1-1.05-.66,7,7,0,0,1-.82.91M14,178l1.26,1.4a7,7,0,0,0,.78-.86,6.35,6.35,0,0,1-.58-.58,6.89,6.89,0,0,1-.49-.61,6.57,6.57,0,0,0-1,.65m-.28-.31a6.1,6.1,0,0,1,1-.69,5.24,5.24,0,0,1-.57-1.2,3.1,3.1,0,0,0-1.6.61Zm-1.15,1.19a7.11,7.11,0,0,1,.83-.92L12.3,176.7a2.94,2.94,0,0,0-.82,1.5,5.86,5.86,0,0,1,1.13.7m-.25.35a5.45,5.45,0,0,0-.94-.62,2.92,2.92,0,0,0,.4,1.7,5.19,5.19,0,0,1,.54-1.08M14,180.36a6.82,6.82,0,0,0,1-.66l-1.26-1.4a6.41,6.41,0,0,0-.79.87,5.83,5.83,0,0,1,.55.56,5,5,0,0,1,.51.63m-1.82.45.12.13a4.93,4.93,0,0,0,1.32-.39c-.14-.19-.29-.37-.44-.55s-.32-.33-.48-.48a4.53,4.53,0,0,0-.56,1.24l0,.05m-.32.27a3.38,3.38,0,0,1,.32-4.83,3.53,3.53,0,0,1,4.92.29,3.39,3.39,0,0,1-.32,4.84,3.53,3.53,0,0,1-4.92-.3"/><text class="cls-18" transform="matrix(-0.47, -0.55, -0.77, 0.64, 11.29, 186.24)"><tspan class="cls-19">P</tspan><tspan x="0.9" y="0">asspo</tspan><tspan class="cls-20" x="5.16" y="0">r</tspan><tspan x="5.78" y="0">t</tspan></text><path class="cls-4" d="M12.88,164.33c1.79,2.31,3.63,4.25,4.66,7a6.7,6.7,0,0,0-2.13-1.93c-.69.39-2.22,1.37-2.47,2.66a24.18,24.18,0,0,0,0,3.71c0,.55,0,1.1-.09,1.64,0,.17,0,.33-.07.5-.1.56-.25,2.1-1.15,1.35a1.13,1.13,0,0,1-.27-.34,2.24,2.24,0,0,1-.24-.55,7.64,7.64,0,0,1-.18-1.91c0-.9,0-1.8-.08-2.7-.2,1.94-.36,3.88-.68,5.81a7.9,7.9,0,0,1-.28,1.35c0,.09-.1.39-.21.44s-.32-.16-.38-.21A2,2,0,0,1,8.69,180a18.68,18.68,0,0,1,.22-5.11c-.32,1.07-.78,2.1-1.13,3.16-.2.6-.4,1.2-.61,1.8s-.36,1-.58,1.53a2.34,2.34,0,0,1-.43.73c-.13.11-.45-.07-.55-.14a1.63,1.63,0,0,1-.49-1.37,15.93,15.93,0,0,1,.49-2.64c.19-.95.26-1.92.49-2.87.42-1.73,1.39-3.2,1.56-5a15.64,15.64,0,0,0,0-2.65c-.08-1.46-.15-2.59,1.11-3.56a3.44,3.44,0,0,1,.91-.53A2.74,2.74,0,0,1,11,163.2Z"/><path class="cls-5" d="M26.57,51.72c9.75,13.37,3.83,30.54-.23,44.68-2.05,7.14-3.93,14.31-5.92,21.47-4.21,15.12-2.11,31.28-2.23,46.95-3.85,3.19-13.72,5-13.71,3.46.22-23.2-4.27-46.16-1.77-69.43C4.24,84.56,10.8,66.38,16.22,59.41,18.73,56.18,26.57,51.72,26.57,51.72Z"/><path class="cls-21" d="M64.45,269.25s-.55-6-.13-8.66c-2.59-1-6.64-1.6-9.31-.25-.85,2.51-.06,4.86.44,7.3a18.82,18.82,0,0,1-2.21-3.8,7,7,0,0,0-1.39-2.35c-2,.23-4.17.6-6.12.08.92,2.78,3.71,4.58,4.87,7.25,1.5,3.48.82,7.88,1.08,11.58,10.82,3.24,22.38.64,33.51.46A12.26,12.26,0,0,0,85,277a9.6,9.6,0,0,0-1-2.6c-.35-.64-10.85.21-13.91,1S64.32,273.64,64.45,269.25Z"/><path class="cls-21" d="M25.42,268.17s.09-5.88.79-8.37c-2.46-1.26-6.43-2.2-9.22-1.16-1.11,2.33-.59,4.67-.35,7.07a17.85,17.85,0,0,1-1.79-3.87,6.53,6.53,0,0,0-1.13-2.4c-2,0-4.2.16-6.09-.54.62,2.77,3.2,4.79,4.06,7.47,1.12,3.5,0,7.68-.16,11.26,10.42,4.19,22.19,2.84,33.27,3.77a11.75,11.75,0,0,0,.2-3.74,9.41,9.41,0,0,0-.68-2.6c-.29-.66-10.81-.88-13.94-.41S24.82,272.37,25.42,268.17Z"/></g></g></svg>